<svg width="137" height="45" viewBox="0 0 137 45" fill="none" xmlns="http://www.w3.org/2000/svg">
<g id="Logo">
<g id="total">
<path d="M61.8028 14.0626C61.0938 14.0626 60.5472 13.8658 60.1631 13.472C59.7849 13.0783 59.5959 12.5112 59.5959 11.7708V6.30574H58.5145C58.42 6.30574 58.3402 6.2793 58.2752 6.22641C58.2102 6.16764 58.1777 6.0795 58.1777 5.96197V5.33613L59.649 5.15102L60.0124 2.39204C60.0243 2.30389 60.0627 2.23337 60.1277 2.18049C60.1927 2.12172 60.2754 2.09234 60.3758 2.09234H61.1735V5.16865H63.7439V6.30574H61.1735V11.665C61.1735 12.0411 61.2651 12.3203 61.4483 12.5024C61.6315 12.6846 61.8678 12.7757 62.1573 12.7757C62.3228 12.7757 62.4646 12.7551 62.5828 12.714C62.7069 12.667 62.8132 12.617 62.9019 12.5641C62.9905 12.5112 63.0644 12.4642 63.1234 12.4231C63.1884 12.3761 63.2446 12.3526 63.2918 12.3526C63.3746 12.3526 63.4484 12.4025 63.5134 12.5024L63.9743 13.2517C63.7025 13.5044 63.3746 13.7042 62.9905 13.8511C62.6064 13.9921 62.2105 14.0626 61.8028 14.0626Z" fill="#3F4473"/>
<path d="M69.3286 4.85132C69.9845 4.85132 70.5753 4.96004 71.1012 5.17746C71.633 5.39489 72.0821 5.70341 72.4484 6.103C72.8207 6.5026 73.1043 6.98741 73.2993 7.55742C73.5002 8.12156 73.6007 8.75327 73.6007 9.45257C73.6007 10.1577 73.5002 10.7924 73.2993 11.3565C73.1043 11.9207 72.8207 12.4025 72.4484 12.8021C72.0821 13.2017 71.633 13.5102 71.1012 13.7277C70.5753 13.9392 69.9845 14.045 69.3286 14.045C68.6727 14.045 68.0788 13.9392 67.5471 13.7277C67.0212 13.5102 66.5721 13.2017 66.1998 12.8021C65.8276 12.4025 65.541 11.9207 65.3401 11.3565C65.1392 10.7924 65.0387 10.1577 65.0387 9.45257C65.0387 8.75327 65.1392 8.12156 65.3401 7.55742C65.541 6.98741 65.8276 6.5026 66.1998 6.103C66.5721 5.70341 67.0212 5.39489 67.5471 5.17746C68.0788 4.96004 68.6727 4.85132 69.3286 4.85132ZM69.3286 12.8198C70.2149 12.8198 70.8767 12.5259 71.3139 11.9383C71.7512 11.3448 71.9698 10.5191 71.9698 9.46138C71.9698 8.39775 71.7512 7.56917 71.3139 6.97565C70.8767 6.38213 70.2149 6.08537 69.3286 6.08537C68.8795 6.08537 68.4895 6.16177 68.1586 6.31455C67.8277 6.46734 67.55 6.68771 67.3255 6.97565C67.1068 7.2636 66.9414 7.61912 66.8291 8.04222C66.7228 8.45945 66.6696 8.9325 66.6696 9.46138C66.6696 9.99026 66.7228 10.4633 66.8291 10.8805C66.9414 11.2978 67.1068 11.6504 67.3255 11.9383C67.55 12.2204 67.8277 12.4378 68.1586 12.5906C68.4895 12.7434 68.8795 12.8198 69.3286 12.8198Z" fill="#3F4473"/>
<path d="M78.2657 14.0626C77.5566 14.0626 77.01 13.8658 76.626 13.472C76.2478 13.0783 76.0587 12.5112 76.0587 11.7708V6.30574H74.9774C74.8828 6.30574 74.8031 6.2793 74.7381 6.22641C74.6731 6.16764 74.6406 6.0795 74.6406 5.96197V5.33613L76.1119 5.15102L76.4753 2.39204C76.4871 2.30389 76.5255 2.23337 76.5905 2.18049C76.6555 2.12172 76.7382 2.09234 76.8387 2.09234H77.6364V5.16865H80.2067V6.30574H77.6364V11.665C77.6364 12.0411 77.728 12.3203 77.9111 12.5024C78.0943 12.6846 78.3307 12.7757 78.6202 12.7757C78.7856 12.7757 78.9275 12.7551 79.0456 12.714C79.1697 12.667 79.2761 12.617 79.3647 12.5641C79.4533 12.5112 79.5272 12.4642 79.5863 12.4231C79.6513 12.3761 79.7074 12.3526 79.7547 12.3526C79.8374 12.3526 79.9113 12.4025 79.9763 12.5024L80.4372 13.2517C80.1654 13.5044 79.8374 13.7042 79.4533 13.8511C79.0693 13.9921 78.6734 14.0626 78.2657 14.0626Z" fill="#3F4473"/>
<path d="M88.7518 13.9216H88.0516C87.8979 13.9216 87.7738 13.8981 87.6793 13.8511C87.5848 13.8041 87.5227 13.7042 87.4932 13.5514L87.3159 12.7228C87.0795 12.9343 86.8491 13.1253 86.6246 13.2958C86.4 13.4603 86.1637 13.6013 85.9155 13.7189C85.6673 13.8305 85.4014 13.9157 85.1178 13.9745C84.8401 14.0332 84.5299 14.0626 84.1872 14.0626C83.8385 14.0626 83.5106 14.0156 83.2033 13.9216C82.902 13.8217 82.639 13.6748 82.4145 13.4809C82.19 13.2869 82.0098 13.0431 81.8739 12.7492C81.7439 12.4495 81.6789 12.097 81.6789 11.6915C81.6789 11.3389 81.7764 11.001 81.9713 10.6778C82.1663 10.3487 82.4795 10.0578 82.9109 9.80515C83.3481 9.55247 83.9183 9.34679 84.6215 9.18813C85.3246 9.02359 86.1844 8.92956 87.2007 8.90606V8.2097C87.2007 7.51628 87.05 6.99328 86.7487 6.6407C86.4532 6.28223 86.013 6.103 85.428 6.103C85.0439 6.103 84.719 6.15295 84.4531 6.25285C84.1931 6.34687 83.9656 6.45559 83.7706 6.57899C83.5815 6.69652 83.4161 6.80524 83.2742 6.90513C83.1383 6.99916 83.0024 7.04617 82.8665 7.04617C82.7602 7.04617 82.6656 7.01973 82.5829 6.96684C82.5061 6.90807 82.4441 6.83756 82.3968 6.75529L82.1132 6.25285C82.6095 5.77686 83.1443 5.42134 83.7174 5.18628C84.2906 4.95122 84.9258 4.83369 85.623 4.83369C86.1253 4.83369 86.5714 4.91596 86.9614 5.0805C87.3514 5.24504 87.6793 5.47422 87.9452 5.76805C88.2111 6.06187 88.412 6.41739 88.5479 6.83462C88.6838 7.25184 88.7518 7.71021 88.7518 8.2097V13.9216ZM84.6569 12.9608C84.9346 12.9608 85.1887 12.9344 85.4192 12.8815C85.6496 12.8227 85.8653 12.7434 86.0662 12.6435C86.273 12.5377 86.468 12.4113 86.6512 12.2644C86.8402 12.1175 87.0234 11.95 87.2007 11.762V9.90211C86.4739 9.92562 85.8564 9.98438 85.3483 10.0784C84.8401 10.1666 84.4265 10.2841 84.1074 10.431C83.7883 10.5779 83.5549 10.7513 83.4072 10.9511C83.2654 11.1509 83.1945 11.3742 83.1945 11.621C83.1945 11.856 83.2329 12.0588 83.3097 12.2292C83.3865 12.3996 83.4899 12.5406 83.6199 12.6523C83.7499 12.7581 83.9035 12.8374 84.0808 12.8903C84.2581 12.9373 84.4501 12.9608 84.6569 12.9608Z" fill="#3F4473"/>
<path d="M92.8969 0.937622V13.9216H91.3192V0.937622H92.8969Z" fill="#3F4473"/>
</g>
<g id="books">
<path d="M60.0547 42.8831V20.6249H62.7985V29.782C63.4423 29.0466 64.1781 28.4573 65.0059 28.0141C65.8438 27.5607 66.7993 27.3341 67.8723 27.3341C68.7716 27.3341 69.584 27.5003 70.3096 27.8327C71.0352 28.1652 71.6534 28.6638 72.1644 29.3287C72.6753 29.9835 73.0688 30.7995 73.3447 31.7767C73.6206 32.7438 73.7586 33.8619 73.7586 35.1313C73.7586 36.2595 73.6053 37.3123 73.2987 38.2894C72.9921 39.2565 72.5476 40.0977 71.9651 40.8129C71.3928 41.5181 70.6877 42.0772 69.8497 42.4902C69.022 42.8932 68.0869 43.0947 67.0446 43.0947C66.0431 43.0947 65.1898 42.9033 64.4847 42.5204C63.7898 42.1376 63.1817 41.6037 62.6606 40.9187L62.5226 42.3089C62.4409 42.6917 62.2058 42.8831 61.8175 42.8831H60.0547ZM66.9833 29.4798C66.0942 29.4798 65.3124 29.6813 64.638 30.0842C63.9737 30.4872 63.3606 31.0564 62.7985 31.7918V39.1961C63.289 39.8609 63.8307 40.3294 64.4234 40.6014C65.0263 40.8734 65.6957 41.0094 66.4314 41.0094C67.8825 41.0094 68.9964 40.5006 69.7731 39.4832C70.5497 38.4657 70.9381 37.0151 70.9381 35.1313C70.9381 34.1339 70.8461 33.2777 70.6622 32.5624C70.4884 31.8472 70.233 31.2629 69.8957 30.8096C69.5585 30.3462 69.1446 30.0087 68.6541 29.7971C68.1636 29.5856 67.6066 29.4798 66.9833 29.4798Z" fill="#3F4473"/>
<path d="M83.3725 27.3341C84.5069 27.3341 85.5288 27.5204 86.4383 27.8932C87.358 28.2659 88.1346 28.7948 88.7682 29.4798C89.412 30.1648 89.9026 30.9959 90.2398 31.9731C90.5872 32.9402 90.761 34.0231 90.761 35.2219C90.761 36.4308 90.5872 37.5188 90.2398 38.4859C89.9026 39.453 89.412 40.279 88.7682 40.964C88.1346 41.6491 87.358 42.1779 86.4383 42.5507C85.5288 42.9133 84.5069 43.0947 83.3725 43.0947C82.2382 43.0947 81.2112 42.9133 80.2915 42.5507C79.382 42.1779 78.6053 41.6491 77.9615 40.964C77.3177 40.279 76.8221 39.453 76.4746 38.4859C76.1272 37.5188 75.9534 36.4308 75.9534 35.2219C75.9534 34.0231 76.1272 32.9402 76.4746 31.9731C76.8221 30.9959 77.3177 30.1648 77.9615 29.4798C78.6053 28.7948 79.382 28.2659 80.2915 27.8932C81.2112 27.5204 82.2382 27.3341 83.3725 27.3341ZM83.3725 40.9943C84.9054 40.9943 86.0499 40.4906 86.8062 39.4832C87.5624 38.4657 87.9405 37.0503 87.9405 35.237C87.9405 33.4137 87.5624 31.9932 86.8062 30.9758C86.0499 29.9583 84.9054 29.4496 83.3725 29.4496C82.5959 29.4496 81.9214 29.5806 81.3491 29.8425C80.7769 30.1044 80.2966 30.4822 79.9082 30.9758C79.5301 31.4694 79.244 32.0789 79.0498 32.8042C78.8659 33.5194 78.7739 34.3304 78.7739 35.237C78.7739 36.1437 78.8659 36.9546 79.0498 37.6699C79.244 38.3851 79.5301 38.9896 79.9082 39.4832C80.2966 39.9667 80.7769 40.3395 81.3491 40.6014C81.9214 40.8633 82.5959 40.9943 83.3725 40.9943Z" fill="#3F4473"/>
<path d="M100.408 27.3341C101.542 27.3341 102.564 27.5204 103.474 27.8932C104.393 28.2659 105.17 28.7948 105.803 29.4798C106.447 30.1648 106.938 30.9959 107.275 31.9731C107.622 32.9402 107.796 34.0231 107.796 35.2219C107.796 36.4308 107.622 37.5188 107.275 38.4859C106.938 39.453 106.447 40.279 105.803 40.964C105.17 41.6491 104.393 42.1779 103.474 42.5507C102.564 42.9133 101.542 43.0947 100.408 43.0947C99.2734 43.0947 98.2464 42.9133 97.3267 42.5507C96.4172 42.1779 95.6405 41.6491 94.9967 40.964C94.3529 40.279 93.8573 39.453 93.5098 38.4859C93.1624 37.5188 92.9887 36.4308 92.9887 35.2219C92.9887 34.0231 93.1624 32.9402 93.5098 31.9731C93.8573 30.9959 94.3529 30.1648 94.9967 29.4798C95.6405 28.7948 96.4172 28.2659 97.3267 27.8932C98.2464 27.5204 99.2734 27.3341 100.408 27.3341ZM100.408 40.9943C101.941 40.9943 103.085 40.4906 103.841 39.4832C104.598 38.4657 104.976 37.0503 104.976 35.237C104.976 33.4137 104.598 31.9932 103.841 30.9758C103.085 29.9583 101.941 29.4496 100.408 29.4496C99.6311 29.4496 98.9566 29.5806 98.3844 29.8425C97.8121 30.1044 97.3318 30.4822 96.9435 30.9758C96.5654 31.4694 96.2792 32.0789 96.0851 32.8042C95.9011 33.5194 95.8091 34.3304 95.8091 35.237C95.8091 36.1437 95.9011 36.9546 96.0851 37.6699C96.2792 38.3851 96.5654 38.9896 96.9435 39.4832C97.3318 39.9667 97.8121 40.3395 98.3844 40.6014C98.9566 40.8633 99.6311 40.9943 100.408 40.9943Z" fill="#3F4473"/>
<path d="M113.994 20.6249V33.726H114.699C114.904 33.726 115.072 33.7008 115.205 33.6504C115.338 33.59 115.486 33.4741 115.65 33.3029L120.555 28.1198C120.708 27.9587 120.861 27.8277 121.015 27.727C121.168 27.6262 121.372 27.5759 121.628 27.5759H124.111L118.393 33.5748C118.25 33.7461 118.107 33.8972 117.964 34.0282C117.831 34.1591 117.678 34.275 117.504 34.3757C117.688 34.4966 117.852 34.6376 117.995 34.7988C118.148 34.9499 118.291 35.1262 118.424 35.3277L124.494 42.8831H122.042C121.817 42.8831 121.623 42.8428 121.459 42.7622C121.306 42.6716 121.158 42.5356 121.015 42.3542L115.91 36.0832C115.757 35.8717 115.604 35.7357 115.45 35.6752C115.297 35.6047 115.067 35.5695 114.76 35.5695H113.994V42.8831H111.25V20.6249H113.994Z" fill="#3F4473"/>
<path d="M136.126 30.0994C136.003 30.321 135.814 30.4318 135.559 30.4318C135.406 30.4318 135.232 30.3764 135.038 30.2656C134.844 30.1548 134.603 30.0339 134.317 29.9029C134.041 29.7619 133.709 29.636 133.321 29.5251C132.933 29.4043 132.473 29.3438 131.941 29.3438C131.481 29.3438 131.068 29.4043 130.7 29.5251C130.332 29.636 130.015 29.7921 129.749 29.9936C129.494 30.1951 129.295 30.4318 129.151 30.7038C129.019 30.9657 128.952 31.2528 128.952 31.5651C128.952 31.958 129.065 32.2854 129.289 32.5473C129.524 32.8092 129.831 33.0359 130.209 33.2273C130.587 33.4187 131.016 33.59 131.497 33.7411C131.977 33.8821 132.468 34.0382 132.968 34.2095C133.479 34.3707 133.975 34.552 134.455 34.7535C134.936 34.955 135.365 35.2068 135.743 35.509C136.121 35.8112 136.422 36.184 136.647 36.6272C136.882 37.0604 137 37.5842 137 38.1988C137 38.9039 136.872 39.5587 136.617 40.1632C136.361 40.7575 135.983 41.2763 135.482 41.7196C134.981 42.1528 134.368 42.4953 133.643 42.7471C132.917 42.999 132.079 43.1249 131.129 43.1249C130.046 43.1249 129.065 42.9536 128.186 42.6111C127.307 42.2585 126.561 41.8102 125.948 41.2662L126.592 40.2387C126.673 40.1078 126.77 40.007 126.883 39.9365C126.995 39.866 127.143 39.8307 127.327 39.8307C127.511 39.8307 127.705 39.9012 127.91 40.0423C128.114 40.1833 128.36 40.3395 128.646 40.5107C128.942 40.682 129.295 40.8381 129.703 40.9791C130.122 41.1202 130.643 41.1907 131.267 41.1907C131.798 41.1907 132.263 41.1252 132.662 40.9943C133.06 40.8532 133.392 40.6669 133.658 40.4352C133.924 40.2035 134.118 39.9365 134.241 39.6343C134.373 39.3321 134.44 39.0097 134.44 38.6672C134.44 38.2441 134.322 37.8965 134.087 37.6245C133.863 37.3425 133.561 37.1057 133.183 36.9143C132.805 36.7129 132.371 36.5416 131.88 36.4006C131.4 36.2495 130.904 36.0933 130.393 35.9321C129.892 35.7709 129.397 35.5896 128.906 35.3881C128.426 35.1766 127.997 34.9147 127.619 34.6024C127.241 34.2901 126.934 33.9073 126.699 33.454C126.474 32.9906 126.362 32.4315 126.362 31.7767C126.362 31.1924 126.484 30.6333 126.73 30.0994C126.975 29.5554 127.332 29.0819 127.803 28.6789C128.273 28.2659 128.85 27.9385 129.535 27.6967C130.219 27.455 131.001 27.3341 131.88 27.3341C132.902 27.3341 133.817 27.4953 134.624 27.8176C135.441 28.1299 136.146 28.5631 136.739 29.1172L136.126 30.0994Z" fill="#3F4473"/>
</g>
<path id="Line 2 (Stroke)" fill-rule="evenodd" clip-rule="evenodd" d="M50.671 45C50.1528 45 49.7327 44.562 49.7327 44.0217L49.7327 0.978261C49.7327 0.437982 50.1528 6.36118e-08 50.671 4.09795e-08C51.1893 1.83471e-08 51.6094 0.437982 51.6094 0.978261L51.6094 44.0217C51.6094 44.562 51.1893 45 50.671 45Z" fill="#3F4473"/>
<path id="Vector" d="M14.7791 32.8124H2.1113C1.52849 32.8124 1.03091 32.6178 0.618544 32.2287C0.206181 31.8396 0 31.3701 0 30.8202V18.8671C0 18.3172 0.206181 17.8476 0.618544 17.4585C1.03091 17.0694 1.52849 16.8749 2.1113 16.8749H14.7791C15.3619 16.8749 15.8595 17.0694 16.2718 17.4585C16.6842 17.8476 16.8904 18.3172 16.8904 18.8671V30.8202C16.8904 31.3701 16.6842 31.8396 16.2718 32.2287C15.8595 32.6178 15.3619 32.8124 14.7791 32.8124ZM6.86172 20.8593H5.27825V19.3651C5.27825 19.2302 5.22601 19.1135 5.12155 19.0149C5.01708 18.9164 4.89337 18.8671 4.75042 18.8671C4.60747 18.8671 4.48376 18.9164 4.37929 19.0149C4.27483 19.1135 4.2226 19.2302 4.2226 19.3651V20.8593H2.63912C2.49617 20.8593 2.37246 20.9086 2.268 21.0071C2.16353 21.1057 2.1113 21.2224 2.1113 21.3573C2.1113 21.4922 2.16353 21.6089 2.268 21.7075C2.37246 21.8061 2.49617 21.8554 2.63912 21.8554H4.2226V23.3495C4.2226 23.4844 4.27483 23.6011 4.37929 23.6997C4.48376 23.7983 4.60747 23.8475 4.75042 23.8475C4.89337 23.8475 5.01708 23.7983 5.12155 23.6997C5.22601 23.6011 5.27825 23.4844 5.27825 23.3495V21.8554H6.86172C7.00467 21.8554 7.12838 21.8061 7.23285 21.7075C7.33731 21.6089 7.38954 21.4922 7.38954 21.3573C7.38954 21.2224 7.33731 21.1057 7.23285 21.0071C7.12838 20.9086 7.00467 20.8593 6.86172 20.8593ZM7.26584 25.9565C7.18336 25.8786 7.08165 25.8397 6.96069 25.8397C6.83973 25.8397 6.73526 25.8761 6.64729 25.9487L4.75042 27.7385L2.85355 25.9487C2.76558 25.8761 2.66112 25.8397 2.54016 25.8397C2.4192 25.8397 2.31748 25.8786 2.23501 25.9565C2.15253 26.0343 2.1113 26.1303 2.1113 26.2444C2.1113 26.3585 2.14979 26.4571 2.22676 26.5401L4.12363 28.33L2.24325 30.1043C2.15528 30.1873 2.1113 30.2858 2.1113 30.4C2.1113 30.5141 2.15528 30.6127 2.24325 30.6957C2.33123 30.7787 2.43569 30.8202 2.55665 30.8202C2.67761 30.8202 2.78208 30.7787 2.87005 30.6957L4.75042 28.9214L6.6308 30.6957C6.71877 30.7787 6.82323 30.8202 6.94419 30.8202C7.06515 30.8202 7.16962 30.7787 7.25759 30.6957C7.34556 30.6127 7.38954 30.5141 7.38954 30.4C7.38954 30.2858 7.34556 30.1873 7.25759 30.1043L5.37721 28.33L7.27408 26.5401C7.35106 26.4571 7.38954 26.3585 7.38954 26.2444C7.38954 26.1303 7.34831 26.0343 7.26584 25.9565ZM14.2513 20.8593H10.0287C9.88571 20.8593 9.76201 20.9086 9.65754 21.0071C9.55308 21.1057 9.50084 21.2224 9.50084 21.3573C9.50084 21.4922 9.55308 21.6089 9.65754 21.7075C9.76201 21.8061 9.88571 21.8554 10.0287 21.8554H14.2513C14.3942 21.8554 14.5179 21.8061 14.6224 21.7075C14.7269 21.6089 14.7791 21.4922 14.7791 21.3573C14.7791 21.2224 14.7269 21.1057 14.6224 21.0071C14.5179 20.9086 14.3942 20.8593 14.2513 20.8593ZM14.2513 26.8358H10.0287C9.88571 26.8358 9.76201 26.8851 9.65754 26.9837C9.55308 27.0823 9.50084 27.199 9.50084 27.3339C9.50084 27.4688 9.55308 27.5855 9.65754 27.6841C9.76201 27.7826 9.88571 27.8319 10.0287 27.8319H14.2513C14.3942 27.8319 14.5179 27.7826 14.6224 27.6841C14.7269 27.5855 14.7791 27.4688 14.7791 27.3339C14.7791 27.199 14.7269 27.0823 14.6224 26.9837C14.5179 26.8851 14.3942 26.8358 14.2513 26.8358ZM14.2513 28.828H10.0287C9.88571 28.828 9.76201 28.8773 9.65754 28.9759C9.55308 29.0744 9.50084 29.1912 9.50084 29.3261C9.50084 29.461 9.55308 29.5777 9.65754 29.6763C9.76201 29.7748 9.88571 29.8241 10.0287 29.8241H14.2513C14.3942 29.8241 14.5179 29.7748 14.6224 29.6763C14.7269 29.5777 14.7791 29.461 14.7791 29.3261C14.7791 29.1912 14.7269 29.0744 14.6224 28.9759C14.5179 28.8773 14.3942 28.828 14.2513 28.828Z" fill="#3F4473"/>
<path id="Ellipse 3 (Stroke)" fill-rule="evenodd" clip-rule="evenodd" d="M37.5342 25.2499C41.1273 25.2499 44.0401 22.3398 44.0401 18.7499C44.0401 15.1601 41.1273 12.2499 37.5342 12.2499C33.9411 12.2499 31.0283 15.1601 31.0283 18.7499C31.0283 22.3398 33.9411 25.2499 37.5342 25.2499ZM37.5342 26.2499C41.6801 26.2499 45.041 22.8921 45.041 18.7499C45.041 14.6078 41.6801 11.2499 37.5342 11.2499C33.3883 11.2499 30.0273 14.6078 30.0273 18.7499C30.0273 22.8921 33.3883 26.2499 37.5342 26.2499Z" fill="#3F4473"/>
<path id="Vector 4 (Stroke)" fill-rule="evenodd" clip-rule="evenodd" d="M12.342 2C11.7974 2 11.3559 2.44772 11.3559 3V15H9.38379V3C9.38379 1.34315 10.7082 0 12.342 0H35.5146C37.1484 0 38.4728 1.34315 38.4728 3V12.3067H36.5007V3C36.5007 2.44772 36.0592 2 35.5146 2H12.342Z" fill="#3F4473"/>
<path id="Vector 5 (Stroke)" fill-rule="evenodd" clip-rule="evenodd" d="M35.5145 43.0769C36.059 43.0769 36.5005 42.6464 36.5005 42.1154V26.25H38.4727V42.1154C38.4727 43.7085 37.1482 45 35.5145 45H12.3419C10.7081 45 9.38366 43.7085 9.38366 42.1154V35.8654H11.3558V42.1154C11.3558 42.6464 11.7973 43.0769 12.3419 43.0769H35.5145Z" fill="#3F4473"/>
<path id="Line 3 (Stroke)" fill-rule="evenodd" clip-rule="evenodd" d="M33.7808 6.56247H15.0137V5.62497H33.7808V6.56247Z" fill="#3F4473"/>
<path id="Line 7 (Stroke)" fill-rule="evenodd" clip-rule="evenodd" d="M29.089 12.1874H15.0137V11.2499H29.089V12.1874Z" fill="#3F4473"/>
<path id="Line 8 (Stroke)" fill-rule="evenodd" clip-rule="evenodd" d="M27.2119 18.75L19.7051 18.75L19.7051 17.8125L27.2119 17.8125L27.2119 18.75Z" fill="#3F4473"/>
<path id="Line 10 (Stroke)" fill-rule="evenodd" clip-rule="evenodd" d="M30.027 25.3126L19.7051 25.3126L19.7051 24.3751L30.027 24.3751L30.027 25.3126Z" fill="#3F4473"/>
<path id="Line 5 (Stroke)" fill-rule="evenodd" clip-rule="evenodd" d="M32.842 31.875L19.7051 31.875L19.7051 30.9375L32.842 30.9375L32.842 31.875Z" fill="#3F4473"/>
<path id="Line 6 (Stroke)" fill-rule="evenodd" clip-rule="evenodd" d="M34.7191 38.4375H15.0137V37.5H34.7191V38.4375Z" fill="#3F4473"/>
<path id="Vector_2" d="M38.688 18.703C37.4325 18.4265 37.0288 18.1405 37.0288 17.6952C37.0288 17.1843 37.5874 16.828 38.5221 16.828C39.5065 16.828 39.8715 17.2265 39.9047 17.8124H41.127C41.0883 17.0062 40.5075 16.2655 39.3517 16.0265V14.9999H37.6925V16.0124C36.6195 16.2093 35.7568 16.7999 35.7568 17.7046C35.7568 18.7874 36.8131 19.3265 38.3561 19.6405C39.7388 19.9218 40.0153 20.3343 40.0153 20.7702C40.0153 21.0937 39.7443 21.6093 38.5221 21.6093C37.3828 21.6093 36.9348 21.178 36.874 20.6249H35.6572C35.7236 21.6515 36.6306 22.228 37.6925 22.4202V23.4374H39.3517V22.4296C40.4301 22.2562 41.2874 21.7265 41.2874 20.7655C41.2874 19.4343 39.9434 18.9796 38.688 18.703Z" fill="#3F4473"/>
</g>
</svg>
