<svg width="216" height="75" viewBox="0 0 216 75" fill="none" xmlns="http://www.w3.org/2000/svg">
<g id="Stand">
<path id="Vector 25" d="M2.49957 46.9998C25.1815 62.1213 142.5 73.4999 142.5 73.4999C142.5 73.4999 131.5 44.4999 108.499 46.9997C58.3994 52.4448 -11 38 2.49957 46.9998Z" fill="url(#paint0_radial_3295_6862)"/>
<path id="Vector 23" d="M75.8951 65C59.0951 60.2 69.8951 25.3333 77.3951 8.5C79.7948 6.5 122.729 2 143.896 0C141.396 3.16667 135.796 16 135.396 34C134.896 56.5 150.396 53.3913 165.396 56C175.896 57.8261 215.396 59 215.896 62C216.396 65 189.5 73 161 74.5C133.871 75.9278 96.8951 71 75.8951 65Z" fill="#B0B4B9"/>
<path id="Vector 24" d="M77.8948 62.5C62.212 58.0181 74.4987 25.2179 81.5 9.5C83.7401 7.63253 123.636 1.86747 143.395 0C141.062 2.95683 134.238 18.9432 134.743 35.747C135.395 57.5 148.893 53.0642 162.895 55.5C172.697 57.2051 215.429 59.1988 215.895 62C216.362 64.8012 181.1 70.1988 155.895 73C130.691 75.8012 97.4984 68.1024 77.8948 62.5Z" fill="url(#paint1_linear_3295_6862)"/>
</g>
<defs>
<radialGradient id="paint0_radial_3295_6862" cx="0" cy="0" r="1" gradientUnits="userSpaceOnUse" gradientTransform="translate(134 72.0009) rotate(-169.322) scale(151.117 633.954)">
<stop stop-color="#E3E3E3"/>
<stop offset="1" stop-color="#E4E4E4" stop-opacity="0"/>
</radialGradient>
<linearGradient id="paint1_linear_3295_6862" x1="110.895" y1="8.69817e-06" x2="135.395" y2="79" gradientUnits="userSpaceOnUse">
<stop stop-color="#7D7E83"/>
<stop offset="0.200396" stop-color="#85868B"/>
<stop offset="0.326526" stop-color="#A9ABAD"/>
<stop offset="0.425188" stop-color="#C3C4C5"/>
<stop offset="0.522605" stop-color="#D7D8D9"/>
<stop offset="0.583292" stop-color="#E0E3E4"/>
<stop offset="0.667447" stop-color="#B6B8BA"/>
<stop offset="0.760456" stop-color="#8C8E92"/>
<stop offset="0.840479" stop-color="#8E9196"/>
<stop offset="1" stop-color="#C4C4C4" stop-opacity="0"/>
</linearGradient>
</defs>
</svg>
